<?xml version="1.0" encoding="UTF-8"?>
<!DOCTYPE svg PUBLIC "-//W3C//DTD SVG 1.1//EN"
    "http://www.w3.org/Graphics/SVG/1.1/DTD/svg11.dtd"><svg stroke="rgb(0,0,0)" xmlns="http://www.w3.org/2000/svg" font-size="1" width="800.0000" stroke-opacity="1" xmlns:xlink="http://www.w3.org/1999/xlink" viewBox="0.0 0.0 800.0 100.0" height="100.0000" version="1.1"><defs></defs><g fill="rgb(255,255,255)" stroke="rgb(0,0,0)" stroke-linecap="butt" stroke-width="0.565685424949238" stroke-miterlimit="10.0" fill-opacity="1.0" stroke-opacity="1.0" stroke-linejoin="miter"><path d="M 800.0000,100.0000 l -0.0000,-25.0000 h -25.0000 l -0.0000,25.0000 Z"/></g><g fill="rgb(255,231,231)" stroke="rgb(0,0,0)" stroke-linecap="butt" stroke-width="0.565685424949238" stroke-miterlimit="10.0" fill-opacity="1.0" stroke-opacity="1.0" stroke-linejoin="miter"><path d="M 775.0000,100.0000 l -0.0000,-25.0000 h -25.0000 l -0.0000,25.0000 Z"/></g><g fill="rgb(255,203,203)" stroke="rgb(0,0,0)" stroke-linecap="butt" stroke-width="0.565685424949238" stroke-miterlimit="10.0" fill-opacity="1.0" stroke-opacity="1.0" stroke-linejoin="miter"><path d="M 750.0000,100.0000 l -0.0000,-25.0000 h -25.0000 l -0.0000,25.0000 Z"/></g><g fill="rgb(255,170,170)" stroke="rgb(0,0,0)" stroke-linecap="butt" stroke-width="0.565685424949238" stroke-miterlimit="10.0" fill-opacity="1.0" stroke-opacity="1.0" stroke-linejoin="miter"><path d="M 725.0000,100.0000 l -0.0000,-25.0000 h -25.0000 l -0.0000,25.0000 Z"/></g><g fill="rgb(255,124,124)" stroke="rgb(0,0,0)" stroke-linecap="butt" stroke-width="0.565685424949238" stroke-miterlimit="10.0" fill-opacity="1.0" stroke-opacity="1.0" stroke-linejoin="miter"><path d="M 700.0000,100.0000 l -0.0000,-25.0000 h -25.0000 l -0.0000,25.0000 Z"/></g><g fill="rgb(255,255,255)" stroke="rgb(0,0,0)" stroke-linecap="butt" stroke-width="0.565685424949238" stroke-miterlimit="10.0" fill-opacity="1.0" stroke-opacity="1.0" stroke-linejoin="miter"><path d="M 675.0000,100.0000 l -0.0000,-25.0000 h -25.0000 l -0.0000,25.0000 Z"/></g><g fill="rgb(255,231,231)" stroke="rgb(0,0,0)" stroke-linecap="butt" stroke-width="0.565685424949238" stroke-miterlimit="10.0" fill-opacity="1.0" stroke-opacity="1.0" stroke-linejoin="miter"><path d="M 650.0000,100.0000 l -0.0000,-25.0000 h -25.0000 l -0.0000,25.0000 Z"/></g><g fill="rgb(255,203,203)" stroke="rgb(0,0,0)" stroke-linecap="butt" stroke-width="0.565685424949238" stroke-miterlimit="10.0" fill-opacity="1.0" stroke-opacity="1.0" stroke-linejoin="miter"><path d="M 625.0000,100.0000 l -0.0000,-25.0000 h -25.0000 l -0.0000,25.0000 Z"/></g><g fill="rgb(255,170,170)" stroke="rgb(0,0,0)" stroke-linecap="butt" stroke-width="0.565685424949238" stroke-miterlimit="10.0" fill-opacity="1.0" stroke-opacity="1.0" stroke-linejoin="miter"><path d="M 600.0000,100.0000 l -0.0000,-25.0000 h -25.0000 l -0.0000,25.0000 Z"/></g><g fill="rgb(255,124,124)" stroke="rgb(0,0,0)" stroke-linecap="butt" stroke-width="0.565685424949238" stroke-miterlimit="10.0" fill-opacity="1.0" stroke-opacity="1.0" stroke-linejoin="miter"><path d="M 575.0000,100.0000 l -0.0000,-25.0000 h -25.0000 l -0.0000,25.0000 Z"/></g><g fill="rgb(255,255,255)" stroke="rgb(0,0,0)" stroke-linecap="butt" stroke-width="0.565685424949238" stroke-miterlimit="10.0" fill-opacity="1.0" stroke-opacity="1.0" stroke-linejoin="miter"><path d="M 550.0000,100.0000 l -0.0000,-25.0000 h -25.0000 l -0.0000,25.0000 Z"/></g><g fill="rgb(255,231,231)" stroke="rgb(0,0,0)" stroke-linecap="butt" stroke-width="0.565685424949238" stroke-miterlimit="10.0" fill-opacity="1.0" stroke-opacity="1.0" stroke-linejoin="miter"><path d="M 525.0000,100.0000 l -0.0000,-25.0000 h -25.0000 l -0.0000,25.0000 Z"/></g><g fill="rgb(255,203,203)" stroke="rgb(0,0,0)" stroke-linecap="butt" stroke-width="0.565685424949238" stroke-miterlimit="10.0" fill-opacity="1.0" stroke-opacity="1.0" stroke-linejoin="miter"><path d="M 500.0000,100.0000 l -0.0000,-25.0000 h -25.0000 l -0.0000,25.0000 Z"/></g><g fill="rgb(255,170,170)" stroke="rgb(0,0,0)" stroke-linecap="butt" stroke-width="0.565685424949238" stroke-miterlimit="10.0" fill-opacity="1.0" stroke-opacity="1.0" stroke-linejoin="miter"><path d="M 475.0000,100.0000 l -0.0000,-25.0000 h -25.0000 l -0.0000,25.0000 Z"/></g><g fill="rgb(255,124,124)" stroke="rgb(0,0,0)" stroke-linecap="butt" stroke-width="0.565685424949238" stroke-miterlimit="10.0" fill-opacity="1.0" stroke-opacity="1.0" stroke-linejoin="miter"><path d="M 450.0000,100.0000 l -0.0000,-25.0000 h -25.0000 l -0.0000,25.0000 Z"/></g><g fill="rgb(0,255,255)" stroke="rgb(0,0,0)" stroke-linecap="butt" stroke-width="0.565685424949238" stroke-miterlimit="10.0" fill-opacity="1.0" stroke-opacity="1.0" stroke-linejoin="miter"><path d="M 425.0000,100.0000 l -0.0000,-25.0000 h -25.0000 l -0.0000,25.0000 Z"/></g><g fill="rgb(255,255,255)" stroke="rgb(0,0,0)" stroke-linecap="butt" stroke-width="0.565685424949238" stroke-miterlimit="10.0" fill-opacity="1.0" stroke-opacity="1.0" stroke-linejoin="miter"><path d="M 400.0000,100.0000 l -0.0000,-25.0000 h -25.0000 l -0.0000,25.0000 Z"/></g><g fill="rgb(255,231,231)" stroke="rgb(0,0,0)" stroke-linecap="butt" stroke-width="0.565685424949238" stroke-miterlimit="10.0" fill-opacity="1.0" stroke-opacity="1.0" stroke-linejoin="miter"><path d="M 375.0000,100.0000 l -0.0000,-25.0000 h -25.0000 l -0.0000,25.0000 Z"/></g><g fill="rgb(255,203,203)" stroke="rgb(0,0,0)" stroke-linecap="butt" stroke-width="0.565685424949238" stroke-miterlimit="10.0" fill-opacity="1.0" stroke-opacity="1.0" stroke-linejoin="miter"><path d="M 350.0000,100.0000 l -0.0000,-25.0000 h -25.0000 l -0.0000,25.0000 Z"/></g><g fill="rgb(255,170,170)" stroke="rgb(0,0,0)" stroke-linecap="butt" stroke-width="0.565685424949238" stroke-miterlimit="10.0" fill-opacity="1.0" stroke-opacity="1.0" stroke-linejoin="miter"><path d="M 325.0000,100.0000 l -0.0000,-25.0000 h -25.0000 l -0.0000,25.0000 Z"/></g><g fill="rgb(255,124,124)" stroke="rgb(0,0,0)" stroke-linecap="butt" stroke-width="0.565685424949238" stroke-miterlimit="10.0" fill-opacity="1.0" stroke-opacity="1.0" stroke-linejoin="miter"><path d="M 300.0000,100.0000 l -0.0000,-25.0000 h -25.0000 l -0.0000,25.0000 Z"/></g><g fill="rgb(255,255,255)" stroke="rgb(0,0,0)" stroke-linecap="butt" stroke-width="0.565685424949238" stroke-miterlimit="10.0" fill-opacity="1.0" stroke-opacity="1.0" stroke-linejoin="miter"><path d="M 275.0000,100.0000 l -0.0000,-25.0000 h -25.0000 l -0.0000,25.0000 Z"/></g><g fill="rgb(255,231,231)" stroke="rgb(0,0,0)" stroke-linecap="butt" stroke-width="0.565685424949238" stroke-miterlimit="10.0" fill-opacity="1.0" stroke-opacity="1.0" stroke-linejoin="miter"><path d="M 250.0000,100.0000 l -0.0000,-25.0000 h -25.0000 l -0.0000,25.0000 Z"/></g><g fill="rgb(255,203,203)" stroke="rgb(0,0,0)" stroke-linecap="butt" stroke-width="0.565685424949238" stroke-miterlimit="10.0" fill-opacity="1.0" stroke-opacity="1.0" stroke-linejoin="miter"><path d="M 225.0000,100.0000 l -0.0000,-25.0000 h -25.0000 l -0.0000,25.0000 Z"/></g><g fill="rgb(255,170,170)" stroke="rgb(0,0,0)" stroke-linecap="butt" stroke-width="0.565685424949238" stroke-miterlimit="10.0" fill-opacity="1.0" stroke-opacity="1.0" stroke-linejoin="miter"><path d="M 200.0000,100.0000 l -0.0000,-25.0000 h -25.0000 l -0.0000,25.0000 Z"/></g><g fill="rgb(255,124,124)" stroke="rgb(0,0,0)" stroke-linecap="butt" stroke-width="0.565685424949238" stroke-miterlimit="10.0" fill-opacity="1.0" stroke-opacity="1.0" stroke-linejoin="miter"><path d="M 175.0000,100.0000 l -0.0000,-25.0000 h -25.0000 l -0.0000,25.0000 Z"/></g><g fill="rgb(255,255,255)" stroke="rgb(0,0,0)" stroke-linecap="butt" stroke-width="0.565685424949238" stroke-miterlimit="10.0" fill-opacity="1.0" stroke-opacity="1.0" stroke-linejoin="miter"><path d="M 150.0000,100.0000 l -0.0000,-25.0000 h -25.0000 l -0.0000,25.0000 Z"/></g><g fill="rgb(255,231,231)" stroke="rgb(0,0,0)" stroke-linecap="butt" stroke-width="0.565685424949238" stroke-miterlimit="10.0" fill-opacity="1.0" stroke-opacity="1.0" stroke-linejoin="miter"><path d="M 125.0000,100.0000 l -0.0000,-25.0000 h -25.0000 l -0.0000,25.0000 Z"/></g><g fill="rgb(255,203,203)" stroke="rgb(0,0,0)" stroke-linecap="butt" stroke-width="0.565685424949238" stroke-miterlimit="10.0" fill-opacity="1.0" stroke-opacity="1.0" stroke-linejoin="miter"><path d="M 100.0000,100.0000 l -0.0000,-25.0000 h -25.0000 l -0.0000,25.0000 Z"/></g><g fill="rgb(255,170,170)" stroke="rgb(0,0,0)" stroke-linecap="butt" stroke-width="0.565685424949238" stroke-miterlimit="10.0" fill-opacity="1.0" stroke-opacity="1.0" stroke-linejoin="miter"><path d="M 75.0000,100.0000 l -0.0000,-25.0000 h -25.0000 l -0.0000,25.0000 Z"/></g><g fill="rgb(255,124,124)" stroke="rgb(0,0,0)" stroke-linecap="butt" stroke-width="0.565685424949238" stroke-miterlimit="10.0" fill-opacity="1.0" stroke-opacity="1.0" stroke-linejoin="miter"><path d="M 50.0000,100.0000 l -0.0000,-25.0000 h -25.0000 l -0.0000,25.0000 Z"/></g><g fill="rgb(0,255,255)" stroke="rgb(0,0,0)" stroke-linecap="butt" stroke-width="0.565685424949238" stroke-miterlimit="10.0" fill-opacity="1.0" stroke-opacity="1.0" stroke-linejoin="miter"><path d="M 25.0000,100.0000 l -0.0000,-25.0000 h -25.0000 l -0.0000,25.0000 Z"/></g><g fill="rgb(255,255,255)" stroke="rgb(0,0,0)" stroke-linecap="butt" stroke-width="0.565685424949238" stroke-miterlimit="10.0" fill-opacity="1.0" stroke-opacity="1.0" stroke-linejoin="miter"><path d="M 800.0000,75.0000 l -0.0000,-25.0000 h -25.0000 l -0.0000,25.0000 Z"/></g><g fill="rgb(255,231,231)" stroke="rgb(0,0,0)" stroke-linecap="butt" stroke-width="0.565685424949238" stroke-miterlimit="10.0" fill-opacity="1.0" stroke-opacity="1.0" stroke-linejoin="miter"><path d="M 775.0000,75.0000 l -0.0000,-25.0000 h -25.0000 l -0.0000,25.0000 Z"/></g><g fill="rgb(255,203,203)" stroke="rgb(0,0,0)" stroke-linecap="butt" stroke-width="0.565685424949238" stroke-miterlimit="10.0" fill-opacity="1.0" stroke-opacity="1.0" stroke-linejoin="miter"><path d="M 750.0000,75.0000 l -0.0000,-25.0000 h -25.0000 l -0.0000,25.0000 Z"/></g><g fill="rgb(255,170,170)" stroke="rgb(0,0,0)" stroke-linecap="butt" stroke-width="0.565685424949238" stroke-miterlimit="10.0" fill-opacity="1.0" stroke-opacity="1.0" stroke-linejoin="miter"><path d="M 725.0000,75.0000 l -0.0000,-25.0000 h -25.0000 l -0.0000,25.0000 Z"/></g><g fill="rgb(255,124,124)" stroke="rgb(0,0,0)" stroke-linecap="butt" stroke-width="0.565685424949238" stroke-miterlimit="10.0" fill-opacity="1.0" stroke-opacity="1.0" stroke-linejoin="miter"><path d="M 700.0000,75.0000 l -0.0000,-25.0000 h -25.0000 l -0.0000,25.0000 Z"/></g><g fill="rgb(255,255,255)" stroke="rgb(0,0,0)" stroke-linecap="butt" stroke-width="0.565685424949238" stroke-miterlimit="10.0" fill-opacity="1.0" stroke-opacity="1.0" stroke-linejoin="miter"><path d="M 675.0000,75.0000 l -0.0000,-25.0000 h -25.0000 l -0.0000,25.0000 Z"/></g><g fill="rgb(255,231,231)" stroke="rgb(0,0,0)" stroke-linecap="butt" stroke-width="0.565685424949238" stroke-miterlimit="10.0" fill-opacity="1.0" stroke-opacity="1.0" stroke-linejoin="miter"><path d="M 650.0000,75.0000 l -0.0000,-25.0000 h -25.0000 l -0.0000,25.0000 Z"/></g><g fill="rgb(255,203,203)" stroke="rgb(0,0,0)" stroke-linecap="butt" stroke-width="0.565685424949238" stroke-miterlimit="10.0" fill-opacity="1.0" stroke-opacity="1.0" stroke-linejoin="miter"><path d="M 625.0000,75.0000 l -0.0000,-25.0000 h -25.0000 l -0.0000,25.0000 Z"/></g><g fill="rgb(255,170,170)" stroke="rgb(0,0,0)" stroke-linecap="butt" stroke-width="0.565685424949238" stroke-miterlimit="10.0" fill-opacity="1.0" stroke-opacity="1.0" stroke-linejoin="miter"><path d="M 600.0000,75.0000 l -0.0000,-25.0000 h -25.0000 l -0.0000,25.0000 Z"/></g><g fill="rgb(255,124,124)" stroke="rgb(0,0,0)" stroke-linecap="butt" stroke-width="0.565685424949238" stroke-miterlimit="10.0" fill-opacity="1.0" stroke-opacity="1.0" stroke-linejoin="miter"><path d="M 575.0000,75.0000 l -0.0000,-25.0000 h -25.0000 l -0.0000,25.0000 Z"/></g><g fill="rgb(255,255,255)" stroke="rgb(0,0,0)" stroke-linecap="butt" stroke-width="0.565685424949238" stroke-miterlimit="10.0" fill-opacity="1.0" stroke-opacity="1.0" stroke-linejoin="miter"><path d="M 550.0000,75.0000 l -0.0000,-25.0000 h -25.0000 l -0.0000,25.0000 Z"/></g><g fill="rgb(255,231,231)" stroke="rgb(0,0,0)" stroke-linecap="butt" stroke-width="0.565685424949238" stroke-miterlimit="10.0" fill-opacity="1.0" stroke-opacity="1.0" stroke-linejoin="miter"><path d="M 525.0000,75.0000 l -0.0000,-25.0000 h -25.0000 l -0.0000,25.0000 Z"/></g><g fill="rgb(255,203,203)" stroke="rgb(0,0,0)" stroke-linecap="butt" stroke-width="0.565685424949238" stroke-miterlimit="10.0" fill-opacity="1.0" stroke-opacity="1.0" stroke-linejoin="miter"><path d="M 500.0000,75.0000 l -0.0000,-25.0000 h -25.0000 l -0.0000,25.0000 Z"/></g><g fill="rgb(255,170,170)" stroke="rgb(0,0,0)" stroke-linecap="butt" stroke-width="0.565685424949238" stroke-miterlimit="10.0" fill-opacity="1.0" stroke-opacity="1.0" stroke-linejoin="miter"><path d="M 475.0000,75.0000 l -0.0000,-25.0000 h -25.0000 l -0.0000,25.0000 Z"/></g><g fill="rgb(255,124,124)" stroke="rgb(0,0,0)" stroke-linecap="butt" stroke-width="0.565685424949238" stroke-miterlimit="10.0" fill-opacity="1.0" stroke-opacity="1.0" stroke-linejoin="miter"><path d="M 450.0000,75.0000 l -0.0000,-25.0000 h -25.0000 l -0.0000,25.0000 Z"/></g><g fill="rgb(0,188,188)" stroke="rgb(0,0,0)" stroke-linecap="butt" stroke-width="0.565685424949238" stroke-miterlimit="10.0" fill-opacity="1.0" stroke-opacity="1.0" stroke-linejoin="miter"><path d="M 425.0000,75.0000 l -0.0000,-25.0000 h -25.0000 l -0.0000,25.0000 Z"/></g><g fill="rgb(0,255,255)" stroke="rgb(0,0,0)" stroke-linecap="butt" stroke-width="0.565685424949238" stroke-miterlimit="10.0" fill-opacity="1.0" stroke-opacity="1.0" stroke-linejoin="miter"><path d="M 400.0000,75.0000 l -0.0000,-25.0000 h -25.0000 l -0.0000,25.0000 Z"/></g><g fill="rgb(255,255,255)" stroke="rgb(0,0,0)" stroke-linecap="butt" stroke-width="0.565685424949238" stroke-miterlimit="10.0" fill-opacity="1.0" stroke-opacity="1.0" stroke-linejoin="miter"><path d="M 375.0000,75.0000 l -0.0000,-25.0000 h -25.0000 l -0.0000,25.0000 Z"/></g><g fill="rgb(255,231,231)" stroke="rgb(0,0,0)" stroke-linecap="butt" stroke-width="0.565685424949238" stroke-miterlimit="10.0" fill-opacity="1.0" stroke-opacity="1.0" stroke-linejoin="miter"><path d="M 350.0000,75.0000 l -0.0000,-25.0000 h -25.0000 l -0.0000,25.0000 Z"/></g><g fill="rgb(255,203,203)" stroke="rgb(0,0,0)" stroke-linecap="butt" stroke-width="0.565685424949238" stroke-miterlimit="10.0" fill-opacity="1.0" stroke-opacity="1.0" stroke-linejoin="miter"><path d="M 325.0000,75.0000 l -0.0000,-25.0000 h -25.0000 l -0.0000,25.0000 Z"/></g><g fill="rgb(255,170,170)" stroke="rgb(0,0,0)" stroke-linecap="butt" stroke-width="0.565685424949238" stroke-miterlimit="10.0" fill-opacity="1.0" stroke-opacity="1.0" stroke-linejoin="miter"><path d="M 300.0000,75.0000 l -0.0000,-25.0000 h -25.0000 l -0.0000,25.0000 Z"/></g><g fill="rgb(255,124,124)" stroke="rgb(0,0,0)" stroke-linecap="butt" stroke-width="0.565685424949238" stroke-miterlimit="10.0" fill-opacity="1.0" stroke-opacity="1.0" stroke-linejoin="miter"><path d="M 275.0000,75.0000 l -0.0000,-25.0000 h -25.0000 l -0.0000,25.0000 Z"/></g><g fill="rgb(0,188,188)" stroke="rgb(0,0,0)" stroke-linecap="butt" stroke-width="0.565685424949238" stroke-miterlimit="10.0" fill-opacity="1.0" stroke-opacity="1.0" stroke-linejoin="miter"><path d="M 250.0000,75.0000 l -0.0000,-25.0000 h -25.0000 l -0.0000,25.0000 Z"/></g><g fill="rgb(0,255,255)" stroke="rgb(0,0,0)" stroke-linecap="butt" stroke-width="0.565685424949238" stroke-miterlimit="10.0" fill-opacity="1.0" stroke-opacity="1.0" stroke-linejoin="miter"><path d="M 225.0000,75.0000 l -0.0000,-25.0000 h -25.0000 l -0.0000,25.0000 Z"/></g><g fill="rgb(255,255,255)" stroke="rgb(0,0,0)" stroke-linecap="butt" stroke-width="0.565685424949238" stroke-miterlimit="10.0" fill-opacity="1.0" stroke-opacity="1.0" stroke-linejoin="miter"><path d="M 200.0000,75.0000 l -0.0000,-25.0000 h -25.0000 l -0.0000,25.0000 Z"/></g><g fill="rgb(255,231,231)" stroke="rgb(0,0,0)" stroke-linecap="butt" stroke-width="0.565685424949238" stroke-miterlimit="10.0" fill-opacity="1.0" stroke-opacity="1.0" stroke-linejoin="miter"><path d="M 175.0000,75.0000 l -0.0000,-25.0000 h -25.0000 l -0.0000,25.0000 Z"/></g><g fill="rgb(255,203,203)" stroke="rgb(0,0,0)" stroke-linecap="butt" stroke-width="0.565685424949238" stroke-miterlimit="10.0" fill-opacity="1.0" stroke-opacity="1.0" stroke-linejoin="miter"><path d="M 150.0000,75.0000 l -0.0000,-25.0000 h -25.0000 l -0.0000,25.0000 Z"/></g><g fill="rgb(255,170,170)" stroke="rgb(0,0,0)" stroke-linecap="butt" stroke-width="0.565685424949238" stroke-miterlimit="10.0" fill-opacity="1.0" stroke-opacity="1.0" stroke-linejoin="miter"><path d="M 125.0000,75.0000 l -0.0000,-25.0000 h -25.0000 l -0.0000,25.0000 Z"/></g><g fill="rgb(255,124,124)" stroke="rgb(0,0,0)" stroke-linecap="butt" stroke-width="0.565685424949238" stroke-miterlimit="10.0" fill-opacity="1.0" stroke-opacity="1.0" stroke-linejoin="miter"><path d="M 100.0000,75.0000 l -0.0000,-25.0000 h -25.0000 l -0.0000,25.0000 Z"/></g><g fill="rgb(0,188,188)" stroke="rgb(0,0,0)" stroke-linecap="butt" stroke-width="0.565685424949238" stroke-miterlimit="10.0" fill-opacity="1.0" stroke-opacity="1.0" stroke-linejoin="miter"><path d="M 75.0000,75.0000 l -0.0000,-25.0000 h -25.0000 l -0.0000,25.0000 Z"/></g><g fill="rgb(0,255,255)" stroke="rgb(0,0,0)" stroke-linecap="butt" stroke-width="0.565685424949238" stroke-miterlimit="10.0" fill-opacity="1.0" stroke-opacity="1.0" stroke-linejoin="miter"><path d="M 50.0000,75.0000 l -0.0000,-25.0000 h -25.0000 l -0.0000,25.0000 Z"/></g><g fill="rgb(255,255,255)" stroke="rgb(0,0,0)" stroke-linecap="butt" stroke-width="0.565685424949238" stroke-miterlimit="10.0" fill-opacity="1.0" stroke-opacity="1.0" stroke-linejoin="miter"><path d="M 25.0000,75.0000 l -0.0000,-25.0000 h -25.0000 l -0.0000,25.0000 Z"/></g><g fill="rgb(255,231,231)" stroke="rgb(0,0,0)" stroke-linecap="butt" stroke-width="0.565685424949238" stroke-miterlimit="10.0" fill-opacity="1.0" stroke-opacity="1.0" stroke-linejoin="miter"><path d="M 800.0000,50.0000 l -0.0000,-25.0000 h -25.0000 l -0.0000,25.0000 Z"/></g><g fill="rgb(255,203,203)" stroke="rgb(0,0,0)" stroke-linecap="butt" stroke-width="0.565685424949238" stroke-miterlimit="10.0" fill-opacity="1.0" stroke-opacity="1.0" stroke-linejoin="miter"><path d="M 775.0000,50.0000 l -0.0000,-25.0000 h -25.0000 l -0.0000,25.0000 Z"/></g><g fill="rgb(255,170,170)" stroke="rgb(0,0,0)" stroke-linecap="butt" stroke-width="0.565685424949238" stroke-miterlimit="10.0" fill-opacity="1.0" stroke-opacity="1.0" stroke-linejoin="miter"><path d="M 750.0000,50.0000 l -0.0000,-25.0000 h -25.0000 l -0.0000,25.0000 Z"/></g><g fill="rgb(255,124,124)" stroke="rgb(0,0,0)" stroke-linecap="butt" stroke-width="0.565685424949238" stroke-miterlimit="10.0" fill-opacity="1.0" stroke-opacity="1.0" stroke-linejoin="miter"><path d="M 725.0000,50.0000 l -0.0000,-25.0000 h -25.0000 l -0.0000,25.0000 Z"/></g><g fill="rgb(0,137,137)" stroke="rgb(0,0,0)" stroke-linecap="butt" stroke-width="0.565685424949238" stroke-miterlimit="10.0" fill-opacity="1.0" stroke-opacity="1.0" stroke-linejoin="miter"><path d="M 700.0000,50.0000 l -0.0000,-25.0000 h -25.0000 l -0.0000,25.0000 Z"/></g><g fill="rgb(0,188,188)" stroke="rgb(0,0,0)" stroke-linecap="butt" stroke-width="0.565685424949238" stroke-miterlimit="10.0" fill-opacity="1.0" stroke-opacity="1.0" stroke-linejoin="miter"><path d="M 675.0000,50.0000 l -0.0000,-25.0000 h -25.0000 l -0.0000,25.0000 Z"/></g><g fill="rgb(0,225,225)" stroke="rgb(0,0,0)" stroke-linecap="butt" stroke-width="0.565685424949238" stroke-miterlimit="10.0" fill-opacity="1.0" stroke-opacity="1.0" stroke-linejoin="miter"><path d="M 650.0000,50.0000 l -0.0000,-25.0000 h -25.0000 l -0.0000,25.0000 Z"/></g><g fill="rgb(0,255,255)" stroke="rgb(0,0,0)" stroke-linecap="butt" stroke-width="0.565685424949238" stroke-miterlimit="10.0" fill-opacity="1.0" stroke-opacity="1.0" stroke-linejoin="miter"><path d="M 625.0000,50.0000 l -0.0000,-25.0000 h -25.0000 l -0.0000,25.0000 Z"/></g><g fill="rgb(255,255,255)" stroke="rgb(0,0,0)" stroke-linecap="butt" stroke-width="0.565685424949238" stroke-miterlimit="10.0" fill-opacity="1.0" stroke-opacity="1.0" stroke-linejoin="miter"><path d="M 600.0000,50.0000 l -0.0000,-25.0000 h -25.0000 l -0.0000,25.0000 Z"/></g><g fill="rgb(255,231,231)" stroke="rgb(0,0,0)" stroke-linecap="butt" stroke-width="0.565685424949238" stroke-miterlimit="10.0" fill-opacity="1.0" stroke-opacity="1.0" stroke-linejoin="miter"><path d="M 575.0000,50.0000 l -0.0000,-25.0000 h -25.0000 l -0.0000,25.0000 Z"/></g><g fill="rgb(255,203,203)" stroke="rgb(0,0,0)" stroke-linecap="butt" stroke-width="0.565685424949238" stroke-miterlimit="10.0" fill-opacity="1.0" stroke-opacity="1.0" stroke-linejoin="miter"><path d="M 550.0000,50.0000 l -0.0000,-25.0000 h -25.0000 l -0.0000,25.0000 Z"/></g><g fill="rgb(255,170,170)" stroke="rgb(0,0,0)" stroke-linecap="butt" stroke-width="0.565685424949238" stroke-miterlimit="10.0" fill-opacity="1.0" stroke-opacity="1.0" stroke-linejoin="miter"><path d="M 525.0000,50.0000 l -0.0000,-25.0000 h -25.0000 l -0.0000,25.0000 Z"/></g><g fill="rgb(255,124,124)" stroke="rgb(0,0,0)" stroke-linecap="butt" stroke-width="0.565685424949238" stroke-miterlimit="10.0" fill-opacity="1.0" stroke-opacity="1.0" stroke-linejoin="miter"><path d="M 500.0000,50.0000 l -0.0000,-25.0000 h -25.0000 l -0.0000,25.0000 Z"/></g><g fill="rgb(0,137,137)" stroke="rgb(0,0,0)" stroke-linecap="butt" stroke-width="0.565685424949238" stroke-miterlimit="10.0" fill-opacity="1.0" stroke-opacity="1.0" stroke-linejoin="miter"><path d="M 475.0000,50.0000 l -0.0000,-25.0000 h -25.0000 l -0.0000,25.0000 Z"/></g><g fill="rgb(0,188,188)" stroke="rgb(0,0,0)" stroke-linecap="butt" stroke-width="0.565685424949238" stroke-miterlimit="10.0" fill-opacity="1.0" stroke-opacity="1.0" stroke-linejoin="miter"><path d="M 450.0000,50.0000 l -0.0000,-25.0000 h -25.0000 l -0.0000,25.0000 Z"/></g><g fill="rgb(0,225,225)" stroke="rgb(0,0,0)" stroke-linecap="butt" stroke-width="0.565685424949238" stroke-miterlimit="10.0" fill-opacity="1.0" stroke-opacity="1.0" stroke-linejoin="miter"><path d="M 425.0000,50.0000 l -0.0000,-25.0000 h -25.0000 l -0.0000,25.0000 Z"/></g><g fill="rgb(0,255,255)" stroke="rgb(0,0,0)" stroke-linecap="butt" stroke-width="0.565685424949238" stroke-miterlimit="10.0" fill-opacity="1.0" stroke-opacity="1.0" stroke-linejoin="miter"><path d="M 400.0000,50.0000 l -0.0000,-25.0000 h -25.0000 l -0.0000,25.0000 Z"/></g><g fill="rgb(255,255,255)" stroke="rgb(0,0,0)" stroke-linecap="butt" stroke-width="0.565685424949238" stroke-miterlimit="10.0" fill-opacity="1.0" stroke-opacity="1.0" stroke-linejoin="miter"><path d="M 375.0000,50.0000 l -0.0000,-25.0000 h -25.0000 l -0.0000,25.0000 Z"/></g><g fill="rgb(255,231,231)" stroke="rgb(0,0,0)" stroke-linecap="butt" stroke-width="0.565685424949238" stroke-miterlimit="10.0" fill-opacity="1.0" stroke-opacity="1.0" stroke-linejoin="miter"><path d="M 350.0000,50.0000 l -0.0000,-25.0000 h -25.0000 l -0.0000,25.0000 Z"/></g><g fill="rgb(255,203,203)" stroke="rgb(0,0,0)" stroke-linecap="butt" stroke-width="0.565685424949238" stroke-miterlimit="10.0" fill-opacity="1.0" stroke-opacity="1.0" stroke-linejoin="miter"><path d="M 325.0000,50.0000 l -0.0000,-25.0000 h -25.0000 l -0.0000,25.0000 Z"/></g><g fill="rgb(255,170,170)" stroke="rgb(0,0,0)" stroke-linecap="butt" stroke-width="0.565685424949238" stroke-miterlimit="10.0" fill-opacity="1.0" stroke-opacity="1.0" stroke-linejoin="miter"><path d="M 300.0000,50.0000 l -0.0000,-25.0000 h -25.0000 l -0.0000,25.0000 Z"/></g><g fill="rgb(255,124,124)" stroke="rgb(0,0,0)" stroke-linecap="butt" stroke-width="0.565685424949238" stroke-miterlimit="10.0" fill-opacity="1.0" stroke-opacity="1.0" stroke-linejoin="miter"><path d="M 275.0000,50.0000 l -0.0000,-25.0000 h -25.0000 l -0.0000,25.0000 Z"/></g><g fill="rgb(0,137,137)" stroke="rgb(0,0,0)" stroke-linecap="butt" stroke-width="0.565685424949238" stroke-miterlimit="10.0" fill-opacity="1.0" stroke-opacity="1.0" stroke-linejoin="miter"><path d="M 250.0000,50.0000 l -0.0000,-25.0000 h -25.0000 l -0.0000,25.0000 Z"/></g><g fill="rgb(0,188,188)" stroke="rgb(0,0,0)" stroke-linecap="butt" stroke-width="0.565685424949238" stroke-miterlimit="10.0" fill-opacity="1.0" stroke-opacity="1.0" stroke-linejoin="miter"><path d="M 225.0000,50.0000 l -0.0000,-25.0000 h -25.0000 l -0.0000,25.0000 Z"/></g><g fill="rgb(0,225,225)" stroke="rgb(0,0,0)" stroke-linecap="butt" stroke-width="0.565685424949238" stroke-miterlimit="10.0" fill-opacity="1.0" stroke-opacity="1.0" stroke-linejoin="miter"><path d="M 200.0000,50.0000 l -0.0000,-25.0000 h -25.0000 l -0.0000,25.0000 Z"/></g><g fill="rgb(0,255,255)" stroke="rgb(0,0,0)" stroke-linecap="butt" stroke-width="0.565685424949238" stroke-miterlimit="10.0" fill-opacity="1.0" stroke-opacity="1.0" stroke-linejoin="miter"><path d="M 175.0000,50.0000 l -0.0000,-25.0000 h -25.0000 l -0.0000,25.0000 Z"/></g><g fill="rgb(255,255,255)" stroke="rgb(0,0,0)" stroke-linecap="butt" stroke-width="0.565685424949238" stroke-miterlimit="10.0" fill-opacity="1.0" stroke-opacity="1.0" stroke-linejoin="miter"><path d="M 150.0000,50.0000 l -0.0000,-25.0000 h -25.0000 l -0.0000,25.0000 Z"/></g><g fill="rgb(255,231,231)" stroke="rgb(0,0,0)" stroke-linecap="butt" stroke-width="0.565685424949238" stroke-miterlimit="10.0" fill-opacity="1.0" stroke-opacity="1.0" stroke-linejoin="miter"><path d="M 125.0000,50.0000 l -0.0000,-25.0000 h -25.0000 l -0.0000,25.0000 Z"/></g><g fill="rgb(255,203,203)" stroke="rgb(0,0,0)" stroke-linecap="butt" stroke-width="0.565685424949238" stroke-miterlimit="10.0" fill-opacity="1.0" stroke-opacity="1.0" stroke-linejoin="miter"><path d="M 100.0000,50.0000 l -0.0000,-25.0000 h -25.0000 l -0.0000,25.0000 Z"/></g><g fill="rgb(255,170,170)" stroke="rgb(0,0,0)" stroke-linecap="butt" stroke-width="0.565685424949238" stroke-miterlimit="10.0" fill-opacity="1.0" stroke-opacity="1.0" stroke-linejoin="miter"><path d="M 75.0000,50.0000 l -0.0000,-25.0000 h -25.0000 l -0.0000,25.0000 Z"/></g><g fill="rgb(255,124,124)" stroke="rgb(0,0,0)" stroke-linecap="butt" stroke-width="0.565685424949238" stroke-miterlimit="10.0" fill-opacity="1.0" stroke-opacity="1.0" stroke-linejoin="miter"><path d="M 50.0000,50.0000 l -0.0000,-25.0000 h -25.0000 l -0.0000,25.0000 Z"/></g><g fill="rgb(0,113,113)" stroke="rgb(0,0,0)" stroke-linecap="butt" stroke-width="0.565685424949238" stroke-miterlimit="10.0" fill-opacity="1.0" stroke-opacity="1.0" stroke-linejoin="miter"><path d="M 25.0000,50.0000 l -0.0000,-25.0000 h -25.0000 l -0.0000,25.0000 Z"/></g><g fill="rgb(0,156,156)" stroke="rgb(0,0,0)" stroke-linecap="butt" stroke-width="0.565685424949238" stroke-miterlimit="10.0" fill-opacity="1.0" stroke-opacity="1.0" stroke-linejoin="miter"><path d="M 800.0000,25.0000 l -0.0000,-25.0000 h -25.0000 l -0.0000,25.0000 Z"/></g><g fill="rgb(0,188,188)" stroke="rgb(0,0,0)" stroke-linecap="butt" stroke-width="0.565685424949238" stroke-miterlimit="10.0" fill-opacity="1.0" stroke-opacity="1.0" stroke-linejoin="miter"><path d="M 775.0000,25.0000 l -0.0000,-25.0000 h -25.0000 l -0.0000,25.0000 Z"/></g><g fill="rgb(0,213,213)" stroke="rgb(0,0,0)" stroke-linecap="butt" stroke-width="0.565685424949238" stroke-miterlimit="10.0" fill-opacity="1.0" stroke-opacity="1.0" stroke-linejoin="miter"><path d="M 750.0000,25.0000 l -0.0000,-25.0000 h -25.0000 l -0.0000,25.0000 Z"/></g><g fill="rgb(0,235,235)" stroke="rgb(0,0,0)" stroke-linecap="butt" stroke-width="0.565685424949238" stroke-miterlimit="10.0" fill-opacity="1.0" stroke-opacity="1.0" stroke-linejoin="miter"><path d="M 725.0000,25.0000 l -0.0000,-25.0000 h -25.0000 l -0.0000,25.0000 Z"/></g><g fill="rgb(0,255,255)" stroke="rgb(0,0,0)" stroke-linecap="butt" stroke-width="0.565685424949238" stroke-miterlimit="10.0" fill-opacity="1.0" stroke-opacity="1.0" stroke-linejoin="miter"><path d="M 700.0000,25.0000 l -0.0000,-25.0000 h -25.0000 l -0.0000,25.0000 Z"/></g><g fill="rgb(255,255,255)" stroke="rgb(0,0,0)" stroke-linecap="butt" stroke-width="0.565685424949238" stroke-miterlimit="10.0" fill-opacity="1.0" stroke-opacity="1.0" stroke-linejoin="miter"><path d="M 675.0000,25.0000 l -0.0000,-25.0000 h -25.0000 l -0.0000,25.0000 Z"/></g><g fill="rgb(255,231,231)" stroke="rgb(0,0,0)" stroke-linecap="butt" stroke-width="0.565685424949238" stroke-miterlimit="10.0" fill-opacity="1.0" stroke-opacity="1.0" stroke-linejoin="miter"><path d="M 650.0000,25.0000 l -0.0000,-25.0000 h -25.0000 l -0.0000,25.0000 Z"/></g><g fill="rgb(255,203,203)" stroke="rgb(0,0,0)" stroke-linecap="butt" stroke-width="0.565685424949238" stroke-miterlimit="10.0" fill-opacity="1.0" stroke-opacity="1.0" stroke-linejoin="miter"><path d="M 625.0000,25.0000 l -0.0000,-25.0000 h -25.0000 l -0.0000,25.0000 Z"/></g><g fill="rgb(255,170,170)" stroke="rgb(0,0,0)" stroke-linecap="butt" stroke-width="0.565685424949238" stroke-miterlimit="10.0" fill-opacity="1.0" stroke-opacity="1.0" stroke-linejoin="miter"><path d="M 600.0000,25.0000 l -0.0000,-25.0000 h -25.0000 l -0.0000,25.0000 Z"/></g><g fill="rgb(255,124,124)" stroke="rgb(0,0,0)" stroke-linecap="butt" stroke-width="0.565685424949238" stroke-miterlimit="10.0" fill-opacity="1.0" stroke-opacity="1.0" stroke-linejoin="miter"><path d="M 575.0000,25.0000 l -0.0000,-25.0000 h -25.0000 l -0.0000,25.0000 Z"/></g><g fill="rgb(0,113,113)" stroke="rgb(0,0,0)" stroke-linecap="butt" stroke-width="0.565685424949238" stroke-miterlimit="10.0" fill-opacity="1.0" stroke-opacity="1.0" stroke-linejoin="miter"><path d="M 550.0000,25.0000 l -0.0000,-25.0000 h -25.0000 l -0.0000,25.0000 Z"/></g><g fill="rgb(0,156,156)" stroke="rgb(0,0,0)" stroke-linecap="butt" stroke-width="0.565685424949238" stroke-miterlimit="10.0" fill-opacity="1.0" stroke-opacity="1.0" stroke-linejoin="miter"><path d="M 525.0000,25.0000 l -0.0000,-25.0000 h -25.0000 l -0.0000,25.0000 Z"/></g><g fill="rgb(0,188,188)" stroke="rgb(0,0,0)" stroke-linecap="butt" stroke-width="0.565685424949238" stroke-miterlimit="10.0" fill-opacity="1.0" stroke-opacity="1.0" stroke-linejoin="miter"><path d="M 500.0000,25.0000 l -0.0000,-25.0000 h -25.0000 l -0.0000,25.0000 Z"/></g><g fill="rgb(0,213,213)" stroke="rgb(0,0,0)" stroke-linecap="butt" stroke-width="0.565685424949238" stroke-miterlimit="10.0" fill-opacity="1.0" stroke-opacity="1.0" stroke-linejoin="miter"><path d="M 475.0000,25.0000 l -0.0000,-25.0000 h -25.0000 l -0.0000,25.0000 Z"/></g><g fill="rgb(0,235,235)" stroke="rgb(0,0,0)" stroke-linecap="butt" stroke-width="0.565685424949238" stroke-miterlimit="10.0" fill-opacity="1.0" stroke-opacity="1.0" stroke-linejoin="miter"><path d="M 450.0000,25.0000 l -0.0000,-25.0000 h -25.0000 l -0.0000,25.0000 Z"/></g><g fill="rgb(0,255,255)" stroke="rgb(0,0,0)" stroke-linecap="butt" stroke-width="0.565685424949238" stroke-miterlimit="10.0" fill-opacity="1.0" stroke-opacity="1.0" stroke-linejoin="miter"><path d="M 425.0000,25.0000 l -0.0000,-25.0000 h -25.0000 l -0.0000,25.0000 Z"/></g><g fill="rgb(255,255,255)" stroke="rgb(0,0,0)" stroke-linecap="butt" stroke-width="0.565685424949238" stroke-miterlimit="10.0" fill-opacity="1.0" stroke-opacity="1.0" stroke-linejoin="miter"><path d="M 400.0000,25.0000 l -0.0000,-25.0000 h -25.0000 l -0.0000,25.0000 Z"/></g><g fill="rgb(255,231,231)" stroke="rgb(0,0,0)" stroke-linecap="butt" stroke-width="0.565685424949238" stroke-miterlimit="10.0" fill-opacity="1.0" stroke-opacity="1.0" stroke-linejoin="miter"><path d="M 375.0000,25.0000 l -0.0000,-25.0000 h -25.0000 l -0.0000,25.0000 Z"/></g><g fill="rgb(255,203,203)" stroke="rgb(0,0,0)" stroke-linecap="butt" stroke-width="0.565685424949238" stroke-miterlimit="10.0" fill-opacity="1.0" stroke-opacity="1.0" stroke-linejoin="miter"><path d="M 350.0000,25.0000 l -0.0000,-25.0000 h -25.0000 l -0.0000,25.0000 Z"/></g><g fill="rgb(255,170,170)" stroke="rgb(0,0,0)" stroke-linecap="butt" stroke-width="0.565685424949238" stroke-miterlimit="10.0" fill-opacity="1.0" stroke-opacity="1.0" stroke-linejoin="miter"><path d="M 325.0000,25.0000 l -0.0000,-25.0000 h -25.0000 l -0.0000,25.0000 Z"/></g><g fill="rgb(255,124,124)" stroke="rgb(0,0,0)" stroke-linecap="butt" stroke-width="0.565685424949238" stroke-miterlimit="10.0" fill-opacity="1.0" stroke-opacity="1.0" stroke-linejoin="miter"><path d="M 300.0000,25.0000 l -0.0000,-25.0000 h -25.0000 l -0.0000,25.0000 Z"/></g><g fill="rgb(0,113,113)" stroke="rgb(0,0,0)" stroke-linecap="butt" stroke-width="0.565685424949238" stroke-miterlimit="10.0" fill-opacity="1.0" stroke-opacity="1.0" stroke-linejoin="miter"><path d="M 275.0000,25.0000 l -0.0000,-25.0000 h -25.0000 l -0.0000,25.0000 Z"/></g><g fill="rgb(0,156,156)" stroke="rgb(0,0,0)" stroke-linecap="butt" stroke-width="0.565685424949238" stroke-miterlimit="10.0" fill-opacity="1.0" stroke-opacity="1.0" stroke-linejoin="miter"><path d="M 250.0000,25.0000 l -0.0000,-25.0000 h -25.0000 l -0.0000,25.0000 Z"/></g><g fill="rgb(0,188,188)" stroke="rgb(0,0,0)" stroke-linecap="butt" stroke-width="0.565685424949238" stroke-miterlimit="10.0" fill-opacity="1.0" stroke-opacity="1.0" stroke-linejoin="miter"><path d="M 225.0000,25.0000 l -0.0000,-25.0000 h -25.0000 l -0.0000,25.0000 Z"/></g><g fill="rgb(0,213,213)" stroke="rgb(0,0,0)" stroke-linecap="butt" stroke-width="0.565685424949238" stroke-miterlimit="10.0" fill-opacity="1.0" stroke-opacity="1.0" stroke-linejoin="miter"><path d="M 200.0000,25.0000 l -0.0000,-25.0000 h -25.0000 l -0.0000,25.0000 Z"/></g><g fill="rgb(0,235,235)" stroke="rgb(0,0,0)" stroke-linecap="butt" stroke-width="0.565685424949238" stroke-miterlimit="10.0" fill-opacity="1.0" stroke-opacity="1.0" stroke-linejoin="miter"><path d="M 175.0000,25.0000 l -0.0000,-25.0000 h -25.0000 l -0.0000,25.0000 Z"/></g><g fill="rgb(0,255,255)" stroke="rgb(0,0,0)" stroke-linecap="butt" stroke-width="0.565685424949238" stroke-miterlimit="10.0" fill-opacity="1.0" stroke-opacity="1.0" stroke-linejoin="miter"><path d="M 150.0000,25.0000 l -0.0000,-25.0000 h -25.0000 l -0.0000,25.0000 Z"/></g><g fill="rgb(255,255,255)" stroke="rgb(0,0,0)" stroke-linecap="butt" stroke-width="0.565685424949238" stroke-miterlimit="10.0" fill-opacity="1.0" stroke-opacity="1.0" stroke-linejoin="miter"><path d="M 125.0000,25.0000 l -0.0000,-25.0000 h -25.0000 l -0.0000,25.0000 Z"/></g><g fill="rgb(255,231,231)" stroke="rgb(0,0,0)" stroke-linecap="butt" stroke-width="0.565685424949238" stroke-miterlimit="10.0" fill-opacity="1.0" stroke-opacity="1.0" stroke-linejoin="miter"><path d="M 100.0000,25.0000 l -0.0000,-25.0000 h -25.0000 l -0.0000,25.0000 Z"/></g><g fill="rgb(255,203,203)" stroke="rgb(0,0,0)" stroke-linecap="butt" stroke-width="0.565685424949238" stroke-miterlimit="10.0" fill-opacity="1.0" stroke-opacity="1.0" stroke-linejoin="miter"><path d="M 75.0000,25.0000 l -0.0000,-25.0000 h -25.0000 l -0.0000,25.0000 Z"/></g><g fill="rgb(255,170,170)" stroke="rgb(0,0,0)" stroke-linecap="butt" stroke-width="0.565685424949238" stroke-miterlimit="10.0" fill-opacity="1.0" stroke-opacity="1.0" stroke-linejoin="miter"><path d="M 50.0000,25.0000 l -0.0000,-25.0000 h -25.0000 l -0.0000,25.0000 Z"/></g><g fill="rgb(255,124,124)" stroke="rgb(0,0,0)" stroke-linecap="butt" stroke-width="0.565685424949238" stroke-miterlimit="10.0" fill-opacity="1.0" stroke-opacity="1.0" stroke-linejoin="miter"><path d="M 25.0000,25.0000 l -0.0000,-25.0000 h -25.0000 l -0.0000,25.0000 Z"/></g></svg>