<?xml version="1.0" encoding="UTF-8"?>
<!DOCTYPE svg PUBLIC "-//W3C//DTD SVG 1.1//EN"
    "http://www.w3.org/Graphics/SVG/1.1/DTD/svg11.dtd"><svg stroke="rgb(0,0,0)" xmlns="http://www.w3.org/2000/svg" font-size="1" width="800.0000" stroke-opacity="1" xmlns:xlink="http://www.w3.org/1999/xlink" viewBox="0.0 0.0 800.0 800.0" height="800.0000" version="1.1"><defs></defs><g fill="rgb(181,78,78)" stroke="rgb(0,0,0)" stroke-linecap="butt" stroke-width="3.2" stroke-miterlimit="10.0" fill-opacity="1.0" stroke-opacity="1.0" stroke-linejoin="miter"><path d="M 635.3885,446.8217 l 156.9256,31.2145 c 5.1116,-25.6975 7.6859,-51.8351 7.6859 -78.0361l -160.0000,-0.0000 c -0.0000,15.7206 -1.5446,31.4032 -4.6115 46.8217Z"/></g><g fill="rgb(174,108,108)" stroke="rgb(0,0,0)" stroke-linecap="butt" stroke-width="3.2" stroke-miterlimit="10.0" fill-opacity="1.0" stroke-opacity="1.0" stroke-linejoin="miter"><path d="M 621.7311,491.8440 l 147.8207,61.2293 c 10.0267,-24.2066 17.6507,-49.3397 22.7623 -75.0372l -156.9256,-31.2145 c -3.0669,15.4185 -7.6414,30.4984 -13.6574 45.0223Z"/></g><g fill="rgb(181,78,78)" stroke="rgb(0,0,0)" stroke-linecap="butt" stroke-width="3.2" stroke-miterlimit="10.0" fill-opacity="1.0" stroke-opacity="1.0" stroke-linejoin="miter"><path d="M 599.5527,533.3369 l 133.0351,88.8912 c 14.5565,-21.7853 26.9373,-44.9482 36.9640 -69.1547l -147.8207,-61.2293 c -6.0160,14.5239 -13.4445,28.4216 -22.1784 41.4928Z"/></g><g fill="rgb(197,95,95)" stroke="rgb(0,0,0)" stroke-linecap="butt" stroke-width="3.2" stroke-miterlimit="10.0" fill-opacity="1.0" stroke-opacity="1.0" stroke-linejoin="miter"><path d="M 569.7056,569.7056 l 113.1371,113.1371 c 18.5269,-18.5269 35.1886,-38.8293 49.7451 -60.6146l -133.0351,-88.8912 c -8.7339,13.0712 -18.7309,25.2526 -29.8471 36.3688Z"/></g><g fill="rgb(203,120,120)" stroke="rgb(0,0,0)" stroke-linecap="butt" stroke-width="3.2" stroke-miterlimit="10.0" fill-opacity="1.0" stroke-opacity="1.0" stroke-linejoin="miter"><path d="M 533.3369,599.5527 l 88.8912,133.0351 c 21.7853,-14.5565 42.0877,-31.2182 60.6146 -49.7451l -113.1371,-113.1371 c -11.1161,11.1161 -23.2976,21.1132 -36.3688 29.8471Z"/></g><g fill="rgb(210,145,145)" stroke="rgb(0,0,0)" stroke-linecap="butt" stroke-width="3.2" stroke-miterlimit="10.0" fill-opacity="1.0" stroke-opacity="1.0" stroke-linejoin="miter"><path d="M 491.8440,621.7311 l 61.2293,147.8207 c 24.2066,-10.0267 47.3694,-22.4075 69.1547 -36.9640l -88.8912,-133.0351 c -13.0712,8.7339 -26.9689,16.1624 -41.4928 22.1784Z"/></g><g fill="rgb(195,87,87)" stroke="rgb(0,0,0)" stroke-linecap="butt" stroke-width="3.2" stroke-miterlimit="10.0" fill-opacity="1.0" stroke-opacity="1.0" stroke-linejoin="miter"><path d="M 446.8217,635.3885 l 31.2145,156.9256 c 25.6975,-5.1116 50.8307,-12.7356 75.0372 -22.7623l -61.2293,-147.8207 c -14.5239,6.0160 -29.6038,10.5904 -45.0223 13.6574Z"/></g><g fill="rgb(183,67,67)" stroke="rgb(0,0,0)" stroke-linecap="butt" stroke-width="3.2" stroke-miterlimit="10.0" fill-opacity="1.0" stroke-opacity="1.0" stroke-linejoin="miter"><path d="M 400.0000,640.0000 l -0.0000,160.0000 c 26.2010,-0.0000 52.3386,-2.5743 78.0361 -7.6859l -31.2145,-156.9256 c -15.4185,3.0669 -31.1011,4.6115 -46.8217 4.6115Z"/></g><g fill="rgb(186,37,37)" stroke="rgb(0,0,0)" stroke-linecap="butt" stroke-width="3.2" stroke-miterlimit="10.0" fill-opacity="1.0" stroke-opacity="1.0" stroke-linejoin="miter"><path d="M 353.1783,635.3885 l -31.2145,156.9256 c 25.6975,5.1116 51.8351,7.6859 78.0361 7.6859l 0.0000,-160.0000 c -15.7206,-0.0000 -31.4032,-1.5446 -46.8217 -4.6115Z"/></g><g fill="rgb(189,37,37)" stroke="rgb(0,0,0)" stroke-linecap="butt" stroke-width="3.2" stroke-miterlimit="10.0" fill-opacity="1.0" stroke-opacity="1.0" stroke-linejoin="miter"><path d="M 308.1560,621.7311 l -61.2293,147.8207 c 24.2066,10.0267 49.3397,17.6507 75.0372 22.7623l 31.2145,-156.9256 c -15.4185,-3.0669 -30.4984,-7.6414 -45.0223 -13.6574Z"/></g><g fill="rgb(194,78,78)" stroke="rgb(0,0,0)" stroke-linecap="butt" stroke-width="3.2" stroke-miterlimit="10.0" fill-opacity="1.0" stroke-opacity="1.0" stroke-linejoin="miter"><path d="M 266.6631,599.5527 l -88.8912,133.0351 c 21.7853,14.5565 44.9482,26.9373 69.1547 36.9640l 61.2293,-147.8207 c -14.5239,-6.0160 -28.4216,-13.4445 -41.4928 -22.1784Z"/></g><g fill="rgb(191,55,55)" stroke="rgb(0,0,0)" stroke-linecap="butt" stroke-width="3.2" stroke-miterlimit="10.0" fill-opacity="1.0" stroke-opacity="1.0" stroke-linejoin="miter"><path d="M 230.2944,569.7056 l -113.1371,113.1371 c 18.5269,18.5269 38.8293,35.1886 60.6146 49.7451l 88.8912,-133.0351 c -13.0712,-8.7339 -25.2526,-18.7309 -36.3688 -29.8471Z"/></g><g fill="rgb(191,55,55)" stroke="rgb(0,0,0)" stroke-linecap="butt" stroke-width="3.2" stroke-miterlimit="10.0" fill-opacity="1.0" stroke-opacity="1.0" stroke-linejoin="miter"><path d="M 200.4473,533.3369 l -133.0351,88.8912 c 14.5565,21.7853 31.2182,42.0877 49.7451 60.6146l 113.1371,-113.1371 c -11.1161,-11.1161 -21.1132,-23.2976 -29.8471 -36.3688Z"/></g><g fill="rgb(186,37,37)" stroke="rgb(0,0,0)" stroke-linecap="butt" stroke-width="3.2" stroke-miterlimit="10.0" fill-opacity="1.0" stroke-opacity="1.0" stroke-linejoin="miter"><path d="M 178.2689,491.8440 l -147.8207,61.2293 c 10.0267,24.2066 22.4075,47.3694 36.9640 69.1547l 133.0351,-88.8912 c -8.7339,-13.0712 -16.1624,-26.9689 -22.1784 -41.4928Z"/></g><g fill="rgb(194,78,78)" stroke="rgb(0,0,0)" stroke-linecap="butt" stroke-width="3.2" stroke-miterlimit="10.0" fill-opacity="1.0" stroke-opacity="1.0" stroke-linejoin="miter"><path d="M 164.6115,446.8217 l -156.9256,31.2145 c 5.1116,25.6975 12.7356,50.8307 22.7623 75.0372l 147.8207,-61.2293 c -6.0160,-14.5239 -10.5904,-29.6038 -13.6574 -45.0223Z"/></g><g fill="rgb(192,67,67)" stroke="rgb(0,0,0)" stroke-linecap="butt" stroke-width="3.2" stroke-miterlimit="10.0" fill-opacity="1.0" stroke-opacity="1.0" stroke-linejoin="miter"><path d="M 160.0000,400.0000 l -160.0000,-0.0000 c 0.0000,26.2010 2.5743,52.3386 7.6859 78.0361l 156.9256,-31.2145 c -3.0669,-15.4185 -4.6115,-31.1011 -4.6115 -46.8217Z"/></g><g fill="rgb(195,87,87)" stroke="rgb(0,0,0)" stroke-linecap="butt" stroke-width="3.2" stroke-miterlimit="10.0" fill-opacity="1.0" stroke-opacity="1.0" stroke-linejoin="miter"><path d="M 164.6115,353.1783 l -156.9256,-31.2145 c -5.1116,25.6975 -7.6859,51.8351 -7.6859 78.0361l 160.0000,0.0000 c 0.0000,-15.7206 1.5446,-31.4032 4.6115 -46.8217Z"/></g><g fill="rgb(200,108,108)" stroke="rgb(0,0,0)" stroke-linecap="butt" stroke-width="3.2" stroke-miterlimit="10.0" fill-opacity="1.0" stroke-opacity="1.0" stroke-linejoin="miter"><path d="M 178.2689,308.1560 l -147.8207,-61.2293 c -10.0267,24.2066 -17.6507,49.3397 -22.7623 75.0372l 156.9256,31.2145 c 3.0669,-15.4185 7.6414,-30.4984 13.6574 -45.0223Z"/></g><g fill="rgb(204,126,126)" stroke="rgb(0,0,0)" stroke-linecap="butt" stroke-width="3.2" stroke-miterlimit="10.0" fill-opacity="1.0" stroke-opacity="1.0" stroke-linejoin="miter"><path d="M 200.4473,266.6631 l -133.0351,-88.8912 c -14.5565,21.7853 -26.9373,44.9482 -36.9640 69.1547l 147.8207,61.2293 c 6.0160,-14.5239 13.4445,-28.4216 22.1784 -41.4928Z"/></g><g fill="rgb(203,120,120)" stroke="rgb(0,0,0)" stroke-linecap="butt" stroke-width="3.2" stroke-miterlimit="10.0" fill-opacity="1.0" stroke-opacity="1.0" stroke-linejoin="miter"><path d="M 230.2944,230.2944 l -113.1371,-113.1371 c -18.5269,18.5269 -35.1886,38.8293 -49.7451 60.6146l 133.0351,88.8912 c 8.7339,-13.0712 18.7309,-25.2526 29.8471 -36.3688Z"/></g><g fill="rgb(192,67,67)" stroke="rgb(0,0,0)" stroke-linecap="butt" stroke-width="3.2" stroke-miterlimit="10.0" fill-opacity="1.0" stroke-opacity="1.0" stroke-linejoin="miter"><path d="M 266.6631,200.4473 l -88.8912,-133.0351 c -21.7853,14.5565 -42.0877,31.2182 -60.6146 49.7451l 113.1371,113.1371 c 11.1161,-11.1161 23.2976,-21.1132 36.3688 -29.8471Z"/></g><g fill="rgb(179,87,87)" stroke="rgb(0,0,0)" stroke-linecap="butt" stroke-width="3.2" stroke-miterlimit="10.0" fill-opacity="1.0" stroke-opacity="1.0" stroke-linejoin="miter"><path d="M 308.1560,178.2689 l -61.2293,-147.8207 c -24.2066,10.0267 -47.3694,22.4075 -69.1547 36.9640l 88.8912,133.0351 c 13.0712,-8.7339 26.9689,-16.1624 41.4928 -22.1784Z"/></g><g fill="rgb(178,95,95)" stroke="rgb(0,0,0)" stroke-linecap="butt" stroke-width="3.2" stroke-miterlimit="10.0" fill-opacity="1.0" stroke-opacity="1.0" stroke-linejoin="miter"><path d="M 353.1783,164.6115 l -31.2145,-156.9256 c -25.6975,5.1116 -50.8307,12.7356 -75.0372 22.7623l 61.2293,147.8207 c 14.5239,-6.0160 29.6038,-10.5904 45.0223 -13.6574Z"/></g><g fill="rgb(186,37,37)" stroke="rgb(0,0,0)" stroke-linecap="butt" stroke-width="3.2" stroke-miterlimit="10.0" fill-opacity="1.0" stroke-opacity="1.0" stroke-linejoin="miter"><path d="M 400.0000,160.0000 l 0.0000,-160.0000 c -26.2010,0.0000 -52.3386,2.5743 -78.0361 7.6859l 31.2145,156.9256 c 15.4185,-3.0669 31.1011,-4.6115 46.8217 -4.6115Z"/></g><g fill="rgb(184,55,55)" stroke="rgb(0,0,0)" stroke-linecap="butt" stroke-width="3.2" stroke-miterlimit="10.0" fill-opacity="1.0" stroke-opacity="1.0" stroke-linejoin="miter"><path d="M 446.8217,164.6115 l 31.2145,-156.9256 c -25.6975,-5.1116 -51.8351,-7.6859 -78.0361 -7.6859l -0.0000,160.0000 c 15.7206,0.0000 31.4032,1.5446 46.8217 4.6115Z"/></g><g fill="rgb(197,95,95)" stroke="rgb(0,0,0)" stroke-linecap="butt" stroke-width="3.2" stroke-miterlimit="10.0" fill-opacity="1.0" stroke-opacity="1.0" stroke-linejoin="miter"><path d="M 491.8440,178.2689 l 61.2293,-147.8207 c -24.2066,-10.0267 -49.3397,-17.6507 -75.0372 -22.7623l -31.2145,156.9256 c 15.4185,3.0669 30.4984,7.6414 45.0223 13.6574Z"/></g><g fill="rgb(204,126,126)" stroke="rgb(0,0,0)" stroke-linecap="butt" stroke-width="3.2" stroke-miterlimit="10.0" fill-opacity="1.0" stroke-opacity="1.0" stroke-linejoin="miter"><path d="M 533.3369,200.4473 l 88.8912,-133.0351 c -21.7853,-14.5565 -44.9482,-26.9373 -69.1547 -36.9640l -61.2293,147.8207 c 14.5239,6.0160 28.4216,13.4445 41.4928 22.1784Z"/></g><g fill="rgb(204,126,126)" stroke="rgb(0,0,0)" stroke-linecap="butt" stroke-width="3.2" stroke-miterlimit="10.0" fill-opacity="1.0" stroke-opacity="1.0" stroke-linejoin="miter"><path d="M 569.7056,230.2944 l 113.1371,-113.1371 c -18.5269,-18.5269 -38.8293,-35.1886 -60.6146 -49.7451l -88.8912,133.0351 c 13.0712,8.7339 25.2526,18.7309 36.3688 29.8471Z"/></g><g fill="rgb(210,145,145)" stroke="rgb(0,0,0)" stroke-linecap="butt" stroke-width="3.2" stroke-miterlimit="10.0" fill-opacity="1.0" stroke-opacity="1.0" stroke-linejoin="miter"><path d="M 599.5527,266.6631 l 133.0351,-88.8912 c -14.5565,-21.7853 -31.2182,-42.0877 -49.7451 -60.6146l -113.1371,113.1371 c 11.1161,11.1161 21.1132,23.2976 29.8471 36.3688Z"/></g><g fill="rgb(203,120,120)" stroke="rgb(0,0,0)" stroke-linecap="butt" stroke-width="3.2" stroke-miterlimit="10.0" fill-opacity="1.0" stroke-opacity="1.0" stroke-linejoin="miter"><path d="M 621.7311,308.1560 l 147.8207,-61.2293 c -10.0267,-24.2066 -22.4075,-47.3694 -36.9640 -69.1547l -133.0351,88.8912 c 8.7339,13.0712 16.1624,26.9689 22.1784 41.4928Z"/></g><g fill="rgb(192,67,67)" stroke="rgb(0,0,0)" stroke-linecap="butt" stroke-width="3.2" stroke-miterlimit="10.0" fill-opacity="1.0" stroke-opacity="1.0" stroke-linejoin="miter"><path d="M 635.3885,353.1783 l 156.9256,-31.2145 c -5.1116,-25.6975 -12.7356,-50.8307 -22.7623 -75.0372l -147.8207,61.2293 c 6.0160,14.5239 10.5904,29.6038 13.6574 45.0223Z"/></g><g fill="rgb(184,55,55)" stroke="rgb(0,0,0)" stroke-linecap="butt" stroke-width="3.2" stroke-miterlimit="10.0" fill-opacity="1.0" stroke-opacity="1.0" stroke-linejoin="miter"><path d="M 640.0000,400.0000 h 160.0000 c -0.0000,-26.2010 -2.5743,-52.3386 -7.6859 -78.0361l -156.9256,31.2145 c 3.0669,15.4185 4.6115,31.1011 4.6115 46.8217Z"/></g></svg>